<?xml version="1.0" encoding="UTF-8"?>
<svg xmlns="http://www.w3.org/2000/svg" xmlns:xlink="http://www.w3.org/1999/xlink" viewBox="0 0 1080 1920">
  <defs>
    <style>
      .cls-1 {
        fill: #fadde1;
      }

      .cls-2 {
        fill: #f7d1d6;
      }
    </style>
    <radialGradient id="radial-gradient" cx="540" cy="960" fx="540" fy="960" r="605.68" gradientTransform="translate(0 -1051.33) scale(1 2.1)" gradientUnits="userSpaceOnUse">
      <stop offset="0" stop-color="#fff"/>
      <stop offset=".27" stop-color="#fefbf9"/>
      <stop offset="1" stop-color="#fcf4ed"/>
    </radialGradient>
  </defs>
  <g id="Layer_1" data-name="Layer 1">
    <rect class="cls-1" width="1080" height="1920"/>
  </g>
  <g id="Layer_2" data-name="Layer 2">
    <path class="cls-2" d="M56.58,866.99c-120.55,85.31-353.27,27.85-471.32-101.36C-642.41,516.44-394.64,53.95-363.02-3.36c23.91-43.33,235.07-428.42,473.63-398.25,218.1,27.58,283.02,367.5,450.44,351.03,134.54-13.24,173.75-288.38,240.94-275.86,49.38,9.2,70.91,162.11,58.21,287.83-20.42,202.11-143.18,471-344.8,513.84-120.08,25.51-167.16-50.61-253.57-8.05-142.3,70.09-68.69,303.15-205.27,399.8Z"/>
    <path class="cls-2" d="M976.48,1729.2c-73.12-91.98,82.42-237.28-1.79-448.99-55.8-140.3-151.44-145.2-178.88-259.38-31.26-130.08,60.25-259.4,228.97-454.36C1394.99,138.69,1605.2-104.21,1701.82-51.46c164.58,89.86-170.82,945.7-40.6,997.93,76.64,30.74,234.25-240.34,304.13-204.09,45.88,23.79,39.21,172.37-18.27,293.09-98.6,207.07-314.46,264.39-293.67,358.5,13.5,61.11,89.63,63.87,93.81,111.25,12.18,138.35-641.18,386.97-770.74,223.99Z"/>
    <path class="cls-2" d="M128.54,1328.93c298.17,108.59,536.54,447.01,456.86,633-51.73,120.76-228,155.02-407.05,189.81-405.2,78.75-738.7-37.09-795.9,86.63-14.74,31.88,4.39,46.07-13.27,79.58-62.84,119.23-417.06,151.99-613.23-33.71-120.12-113.72-205.02-332.11-106.97-499.52,68.05-116.17,220.6-201.66,336.47-171.08,82.82,21.86,105.86,92.18,171.61,86.53,78.14-6.71,115.41-112.02,159.65-178.34,140.11-210.03,528.27-296.17,811.81-192.91Z"/>
  </g>
</svg>