<?xml version="1.0" encoding="UTF-8"?>
<svg xmlns="http://www.w3.org/2000/svg" xmlns:xlink="http://www.w3.org/1999/xlink" viewBox="0 0 1920 1080">
  <defs>
    <style>
      .cls-1 {
        fill: #f7d1d6;
      }

      .cls-2 {
        fill: #fadde1;
      }
    </style>
    <radialGradient id="radial-gradient" cx="960.06" cy="539.56" fx="960.06" fy="539.56" r="605.68" gradientTransform="translate(0 -590.89) scale(1 2.1)" gradientUnits="userSpaceOnUse">
      <stop offset="0" stop-color="#fff"/>
      <stop offset=".3" stop-color="#fdfbf8"/>
      <stop offset="1" stop-color="#fcf4ec"/>
    </radialGradient>
  </defs>
  <g id="Layer_1" data-name="Layer 1">
    <rect class="cls-2" x="420.06" y="-420.44" width="1080" height="1920" transform="translate(420.5 1499.62) rotate(-90)"/>
  </g>
  <g id="Layer_2" data-name="Layer 2">
    <path class="cls-1" d="M72.43,534.24c-96.34,67.52-285.86,17.08-383.57-89.94-188.45-206.4,5.03-578.87,29.75-625.01,18.69-34.88,183.73-344.94,377.54-316.61,177.19,25.9,235.18,303.56,370.6,292.81,108.83-8.64,136.25-231.94,190.9-220.69,40.16,8.27,60.03,133.05,51.73,235.16-13.35,164.16-108.58,381.05-271.3,412.72-96.91,18.86-136.27-43.83-205.62-10.56-114.21,54.79-50.87,245.62-160.03,322.12Z"/>
    <path class="cls-1" d="M1565.95,533.66c-73.12-91.98,82.42-237.28-1.79-448.99-55.8-140.3-151.44-145.2-178.88-259.38-31.26-130.08,60.25-259.4,228.97-454.36,370.21-427.78,580.42-670.68,677.04-617.93,164.58,89.86-170.82,945.7-40.6,997.93,76.64,30.74,234.25-240.34,304.13-204.09,45.88,23.79,39.21,172.37-18.27,293.09-98.6,207.07-314.46,264.39-293.67,358.5,13.5,61.11,89.63,63.87,93.81,111.25,12.18,138.35-641.18,386.97-770.74,223.99Z"/>
    <path class="cls-1" d="M1542.42,1176.26c197.06,248.73,222.75,661.87,57.43,778.54-107.34,75.75-275.42,12.56-446.16-51.63-386.38-145.26-609.73-418.67-723.28-343.27-29.25,19.43-20.4,41.54-53,60.83-116,68.62-434.86-89.09-504.63-350.04-42.72-159.8-.6-390.29,170.64-481.5,118.83-63.29,293.56-56.16,376.22,30.6,59.08,62.01,41.86,133.98,100.82,163.63,70.07,35.23,157-34.93,229.43-68.24,229.39-105.47,605.13,24.56,792.52,261.08Z"/>
    <path class="cls-1" d="M891.58-303.89c96.92,27.63,77.71,224.58,150.31,234.96,76.41,10.93,133.19-202.17,210.34-196.88,97.08,6.66,184.94,356.24,76.86,443.82-30.2,24.48-82.8,34.24-118.41,15.26-49.45-26.36-26.53-87.05-65.56-120.57-81.5-70-277.78,111.92-379.07,39.77-34.07-24.27-53.47-74.49-40.46-107.15,21.91-55.01,130.75-47.58,136.62-81.66,6.83-39.6-138.2-61.07-140.39-120.84-1.86-50.91,100.04-126.6,169.75-106.72Z"/>
    <path class="cls-1" d="M2197.73,1570.91c-71.71,44.33-244.25-33.74-347.14-147.05-198.44-218.52-95.16-521.16-81.71-558.52,10.17-28.25,99.58-279.49,272.04-220.62,157.67,53.81,255.54,314.18,370.8,327.76,92.62,10.91,77.95-185.75,127.14-166.2,36.15,14.36,74.78,130.3,85.15,220.96,16.67,145.75-28.39,324.97-163.65,325.56-80.56.35-125.37-62.95-179.62-44.87-89.34,29.77-1.77,212.76-83.01,262.98Z"/>
  </g>
</svg>